<?xml version="1.0" encoding="UTF-8" standalone="no"?>
<!-- Created with Inkscape (http://www.inkscape.org/) -->

<svg
   width="338.66666mm"
   height="84.402084mm"
   viewBox="0 0 338.66666 84.402084"
   version="1.1"
   id="svg1827"
   xmlns="http://www.w3.org/2000/svg"
   xmlns:svg="http://www.w3.org/2000/svg">
  <defs
     id="defs1824" />
  <g
     id="layer1"
     transform="translate(25.044104,-74.577789)">
    <path
       style="fill:#000000;stroke-width:0.264583"
       d="m 9.8342043,158.58381 c -5.964965,-1.00385 -11.6333331,-3.27564 -16.9007411,-6.77355 -3.2065892,-2.12939 -8.2862212,-7.18277 -10.4793332,-10.42518 -5.251624,-7.76427 -7.854677,-17.0152 -7.407691,-26.32604 0.557116,-11.60489 4.812214,-21.208551 12.777957,-28.839584 17.159734,-16.438703 45.656266,-15.311438 61.383342,2.428202 5.320943,6.001854 9.197822,14.643452 10.038763,22.376482 l 0.179826,1.65365 H 80.811413 102.1965 l 0.15988,-0.99219 c 1.65906,-10.29574 5.34954,-17.753161 12.15185,-24.55547 16.56173,-16.561731 43.08888,-16.613695 59.68784,-0.116924 2.64442,2.628142 4.9157,5.506636 4.58688,5.81318 -0.44064,0.410797 -6.80435,4.821896 -7.08816,4.91326 -0.15717,0.0506 -0.88109,-0.68615 -1.60869,-1.637221 -3.89291,-5.088531 -10.61841,-9.419544 -17.4625,-11.245321 -3.02062,-0.805803 -3.41299,-0.847359 -8.06979,-0.854685 -5.64829,-0.0089 -7.82456,0.374827 -12.50526,2.204887 -4.45107,1.740285 -7.22329,3.604982 -11.04045,7.426238 -3.55829,3.562106 -5.37553,6.14195 -7.02359,9.971026 -2.11897,4.92321 -2.9207,9.36463 -2.68855,14.89405 0.64004,15.24454 11.51177,27.87265 26.65228,30.95809 3.35892,0.68451 8.90252,0.73784 12.16182,0.117 8.08285,-1.53963 15.51301,-5.9364 20.11721,-11.9043 0.61259,-0.79404 1.22918,-1.4437 1.37018,-1.4437 0.18429,0 5.67744,3.69836 7.31396,4.92426 0.23977,0.1796 -2.68236,3.65846 -4.97568,5.92365 -5.93067,5.85791 -12.93623,9.554 -21.32993,11.25353 -4.35075,0.88093 -11.84001,0.93771 -16.06782,0.12183 -15.68542,-3.02697 -28.17018,-14.33599 -32.71227,-29.63161 -0.41052,-1.38245 -0.88545,-3.40651 -1.05541,-4.49791 -0.16995,-1.09141 -0.36545,-2.25227 -0.43445,-2.57969 l -0.12545,-0.59531 H 80.815008 59.419623 l -0.189156,1.78593 c -0.466738,4.40672 -2.71911,11.18211 -5.079487,15.27969 -3.326876,5.7754 -8.189388,10.89713 -13.738304,14.47068 -3.993792,2.57204 -10.175118,4.93592 -15.115508,5.78052 -3.600299,0.6155 -12.131968,0.68311 -15.4629637,0.12253 z m 13.8038657,-9.2938 c 13.324003,-2.30986 23.805353,-12.92442 26.224758,-26.55805 0.570984,-3.21757 0.437891,-9.65071 -0.268221,-12.96459 C 46.439234,94.958795 34.353149,84.739867 19.026795,83.921926 6.5658594,83.256907 -4.9207533,89.287409 -11.229965,99.806805 c -3.190265,5.319155 -4.830038,12.299775 -4.452923,18.956405 0.496439,8.76284 3.956759,16.37804 10.0727848,22.16736 7.6835625,7.27314 18.1911062,10.2763 29.2481732,8.35944 z M -3.8774378,116.91112 v -4.23333 H 17.289228 38.455895 v 4.23333 4.23334 H 17.289228 -3.8774378 Z M 263.18636,158.44496 c -16.96625,-3.2407 -29.7545,-15.79761 -33.17979,-32.57956 -0.28683,-1.40531 -0.52151,-2.85409 -0.52151,-3.21951 0,-0.36542 -0.0723,-0.85274 -0.1606,-1.08292 -0.14525,-0.37851 -3.29084,-0.41851 -32.90921,-0.41851 h -32.74862 l -0.31132,1.25677 c -0.50347,2.0325 -2.25106,5.3602 -3.78639,7.20989 -1.7235,2.07639 -3.67001,3.60965 -6.15157,4.84557 -2.91851,1.45354 -4.41159,1.81011 -8.21354,1.9615 -4.15393,0.16541 -6.62445,-0.34114 -10.175,-2.08626 -3.16442,-1.55533 -6.54668,-4.94261 -8.1483,-8.16039 -1.53683,-3.08761 -2.17045,-5.7688 -2.17045,-9.18437 0,-3.37143 0.53181,-5.87902 1.8398,-8.67501 2.50164,-5.34757 6.82016,-8.933077 12.63399,-10.489507 2.72521,-0.729571 7.35318,-0.776892 10.00017,-0.102249 6.88924,1.755873 12.25142,6.846146 14.05841,13.345536 l 0.44814,1.61185 h 32.75296 32.75297 l 0.15833,-0.99219 c 0.93647,-5.86848 2.02263,-9.61578 3.96865,-13.692186 8.42457,-17.647202 28.52618,-26.853844 48.41678,-22.175136 15.92406,3.74569 27.57927,15.761236 31.13445,32.097012 0.53377,2.45272 0.6046,3.5064 0.6046,8.99583 0,5.46582 -0.0719,6.54563 -0.59478,8.92943 -3.66329,16.70129 -15.24159,28.43785 -31.93802,32.37455 -3.53718,0.834 -13.89541,0.96807 -17.76015,0.22986 z m 14.5656,-9.15966 c 4.66545,-0.88467 8.50514,-2.43796 12.34977,-4.99589 6.94061,-4.61778 11.76393,-11.79571 13.62575,-20.2775 0.67324,-3.06693 0.79584,-9.39533 0.24591,-12.69173 -2.33948,-14.023347 -12.64801,-24.482262 -26.59875,-26.986756 -2.82951,-0.507964 -9.6257,-0.44773 -12.43542,0.110214 -13.76619,2.733644 -23.78781,12.972256 -26.07276,26.637292 -0.66114,3.9539 -0.43377,10.55638 0.48401,14.05479 3.67988,14.02718 14.72083,23.32902 29.29292,24.67884 1.95696,0.18127 6.86562,-0.10395 9.10857,-0.52926 z m -10.43149,-19.67418 v -8.46666 h -8.46666 -8.46667 v -4.23334 -4.23333 h 8.46667 8.46666 v -8.46667 -8.466664 h 4.09734 4.09731 l 0.0699,8.400524 0.0699,8.40052 8.5395,0.0698 8.53951,0.0698 -0.0728,4.16351 -0.0728,4.16351 -8.53281,0.0698 -8.53281,0.0698 v 8.463 8.463 h -4.10104 -4.10105 z"
       id="path1900" />
  </g>
</svg>
