<svg id="Layer_1" data-name="Layer 1" xmlns="http://www.w3.org/2000/svg" viewBox="0 0 841.89 595.28"><defs><style>.cls-1{fill:#231f20;}</style></defs><path class="cls-1" d="M26,327.64A4.91,4.91,0,0,1,21,322.73v-147a27.75,27.75,0,0,1,8.2-19.78l19.25-19.26a28.16,28.16,0,0,1,19.78-8.19H229.09a4.92,4.92,0,1,1,0,9.83H68.26a18.27,18.27,0,0,0-12.83,5.31L36.18,162.86a18,18,0,0,0-5.32,12.83v147A4.91,4.91,0,0,1,26,327.64Z"/><path class="cls-1" d="M42.33,327.32a4.92,4.92,0,0,1-4.92-4.91V296.92a27.77,27.77,0,0,1,8.2-19.78L64.05,258.7a28.17,28.17,0,0,1,19.78-8.19H202.88a4.92,4.92,0,0,1,0,9.83h-119A18.24,18.24,0,0,0,71,265.65L52.56,284.09a18,18,0,0,0-5.32,12.83v25.49A4.91,4.91,0,0,1,42.33,327.32Z"/><path class="cls-1" d="M411.83,334.19a4.92,4.92,0,0,1-4.92-4.91V305.73l-26.16-26.16H237.84a4.92,4.92,0,0,1,0-9.83h147l31.92,31.92v27.62A4.91,4.91,0,0,1,411.83,334.19Z"/><path class="cls-1" d="M219.67,334.19a4.92,4.92,0,0,1-4.92-4.91V174.46a27.88,27.88,0,0,1,10.1-21.52l24-20a28,28,0,0,1,17.87-6.46H373.23A27.78,27.78,0,0,1,393,134.7l19,19a27.8,27.8,0,0,1,8.19,19.78v42.81A27.8,27.8,0,0,1,412,236l-17.9,17.9a27.78,27.78,0,0,1-19.78,8.2H237.84a4.92,4.92,0,0,1,0-9.83H374.3A18,18,0,0,0,387.13,247l17.9-17.9a18,18,0,0,0,5.31-12.83V173.45A18,18,0,0,0,405,160.62l-19-19a18,18,0,0,0-12.83-5.31H266.76a18.18,18.18,0,0,0-11.59,4.19l-24,20a18.11,18.11,0,0,0-6.55,14V329.28A4.91,4.91,0,0,1,219.67,334.19Z"/><path class="cls-1" d="M617.71,333.88H472.48a27.78,27.78,0,0,1-19.78-8.2l-.64-.79L433.9,297a27.78,27.78,0,0,1-7.82-19.4V265a27.82,27.82,0,0,1,8.19-19.78l17.58-17.58a27.82,27.82,0,0,1,19.78-8.19H617.71a4.92,4.92,0,1,1,0,9.83H471.63a18.07,18.07,0,0,0-12.83,5.31l-17.58,17.59A18,18,0,0,0,435.91,265v12.67a18,18,0,0,0,5.31,12.83l.64.79L460,319.07a18,18,0,0,0,12.48,5H617.71a4.92,4.92,0,1,1,0,9.83Z"/><path class="cls-1" d="M431.47,234.44a4.91,4.91,0,0,1-4.91-4.91V175.45a27.8,27.8,0,0,1,8.19-19.78l19-19a27.8,27.8,0,0,1,19.78-8.19H617.71a4.92,4.92,0,1,1,0,9.83H473.55a18,18,0,0,0-12.83,5.31l-19,19a18,18,0,0,0-5.31,12.83v54.08A4.91,4.91,0,0,1,431.47,234.44Z"/><path class="cls-1" d="M817.38,233.08H671.3a27.82,27.82,0,0,1-19.79-8.19l-17.58-17.58a27.82,27.82,0,0,1-8.19-19.78V174.86a27.82,27.82,0,0,1,8.19-19.78l18.43-18.43a27.82,27.82,0,0,1,19.78-8.19H817.38a4.92,4.92,0,0,1,0,9.83H672.14a18,18,0,0,0-12.83,5.31L640.88,162a18.07,18.07,0,0,0-5.31,12.83v12.67a18.07,18.07,0,0,0,5.31,12.83l17.58,17.58a18,18,0,0,0,12.84,5.32H817.38a4.91,4.91,0,0,1,0,9.82Z"/><path class="cls-1" d="M817.38,333.88H673.21a27.77,27.77,0,0,1-19.78-8.2l-.63-.77L634,296.46a27.82,27.82,0,0,1-7.82-19.4V223a4.92,4.92,0,1,1,9.83,0v54.08a18,18,0,0,0,5.32,12.83l.62.76,18.73,28.41a18,18,0,0,0,12.49,5H817.38a4.92,4.92,0,0,1,0,9.83Z"/><path class="cls-1" d="M94.18,476.12H53.81c-21.49,0-37.22-10.46-37.22-24.77v-6.79H42.8v7.7c0,3.67,4.46,6.79,9.18,6.79H96c4.72,0,9.18-3.12,9.18-6.79V438.5c0-10.82-30.93-7.15-50.33-7.52-21.23-.55-37.22-10.46-37.22-25V394.1c0-14.31,15.72-24.77,37.22-24.77H92.08c21.49,0,37.22,10.46,37.22,24.77v7H103.09v-7.89c0-3.67-4.45-6.79-9.17-6.79H53c-4.71,0-9.17,3.12-9.17,6.79v13.94c0,10.83,30.93,7.16,50.33,7.34,21,.37,37.22,10.46,37.22,25v11.93C131.4,465.66,115.67,476.12,94.18,476.12Z"/><path class="cls-1" d="M293.92,414.83l-33.56,23.31v37.61H233.63V438.14l-33.56-23.31c-7.86-5.32-10-9.54-10-17.06V369.33h26.21V397c0,3.86,0,4.41,3.41,6.61l27,19.27L274,403.64c3.41-2.2,3.41-2.75,3.41-6.61v-27.7h26.48v28.44C303.88,405.29,301.78,409.51,293.92,414.83Z"/><path class="cls-1" d="M452.76,475.75V443.46L392,399.05v76.7H365.21V369.33h22.54l65,47.89V369.33h26.73V475.75Z"/><path class="cls-1" d="M606.88,386.39v89.36h-28V386.39H533V369.33H653v17.06Z"/><path class="cls-1" d="M794.56,475.75V431.16H733.23v44.59H706.49V369.33h26.74v44.22h61.33V369.33H821.3V475.75Z"/><path class="cls-1" d="M34.92,364.19A13.88,13.88,0,1,1,48.8,350.31,13.9,13.9,0,0,1,34.92,364.19Zm0-17.93a4.05,4.05,0,1,0,4,4.05A4.05,4.05,0,0,0,34.92,346.26Z"/><path class="cls-1" d="M817.11,355.22H61.56a4.91,4.91,0,1,1,0-9.82H817.11a4.91,4.91,0,0,1,0,9.82Z"/></svg>